<?xml version="1.0" encoding="UTF-8"?>
<svg version="1.1" xmlns="http://www.w3.org/2000/svg" width="512" height="512">
<path d="M0 0 C5.66393954 5.04371115 11.06845433 10.23637352 15.76953125 16.203125 C16.16462891 16.70231445 16.55972656 17.20150391 16.96679688 17.71582031 C33.06366614 38.26019494 43.98582302 61.49232261 48.76953125 87.203125 C49.10597656 88.92208984 49.10597656 88.92208984 49.44921875 90.67578125 C55.90502696 129.89702703 46.25285963 171.39982328 23.57421875 203.91699219 C15.62332049 214.97771759 6.49246926 225.7547496 -4.23046875 234.203125 C-4.7296582 234.59822266 -5.22884766 234.99332031 -5.74316406 235.40039062 C-26.28753869 251.49725989 -49.51966636 262.41941677 -75.23046875 267.203125 C-76.37644531 267.42742187 -77.52242187 267.65171875 -78.703125 267.8828125 C-117.92437078 274.33862071 -159.42716703 264.68645338 -191.94433594 242.0078125 C-203.00506134 234.05691424 -213.78209335 224.92606301 -222.23046875 214.203125 C-222.62556641 213.70393555 -223.02066406 213.20474609 -223.42773438 212.69042969 C-239.52837035 192.14124762 -250.43548208 168.91575107 -255.23046875 143.203125 C-255.56691406 141.5015625 -255.56691406 141.5015625 -255.91015625 139.765625 C-261.60160917 105.46097725 -254.89776491 70.46876452 -238.23046875 40.203125 C-237.66585937 39.14867187 -237.10125 38.09421875 -236.51953125 37.0078125 C-227.0899649 20.05230118 -213.7082034 4.8532577 -198.23046875 -6.796875 C-197.71291016 -7.19471191 -197.19535156 -7.59254883 -196.66210938 -8.00244141 C-177.24895982 -22.86382202 -155.20718902 -32.21194744 -131.23046875 -36.796875 C-130.08191406 -37.02246094 -128.93335938 -37.24804688 -127.75 -37.48046875 C-81.6687104 -45.03051055 -34.85711448 -30.46442281 0 0 Z " fill="#005695" transform="translate(359.23046875,140.796875)"/>
</svg>
